HIERARCHY
ROOT Hips
{
	OFFSET 0.000000 0.000000 0.000000
	CHANNELS 6 Xposition Yposition Zposition Xrotation Yrotation Zrotation
	JOINT LeftUpLeg_virtual
	{
		OFFSET 0.000000 0.000000 0.000000
		CHANNELS 3 Xrotation Yrotation Zrotation
		JOINT LeftUpLeg
		{
			OFFSET 11.394100 -6.187798 -0.413800
			CHANNELS 3 Xrotation Yrotation Zrotation
			JOINT LeftLeg
			{
				OFFSET 0.430247 -32.302673 3.732800
				CHANNELS 3 Xrotation Yrotation Zrotation
				JOINT LeftFoot
				{
					OFFSET -0.430247 -48.264931 -6.423300
					CHANNELS 3 Xrotation Yrotation Zrotation
					JOINT LeftToeBase
					{
						OFFSET 4.230900 -16.068199 23.438400
						CHANNELS 3 Xrotation Yrotation Zrotation
						JOINT LeftToe_End
						{
							OFFSET 4.510700 0.695400 19.974600
							CHANNELS 3 Xrotation Yrotation Zrotation
							End Site
							{
								OFFSET 0 0 0
							}
						}
					}
				}
			}
		}
	}
	JOINT RightUpLeg_virtual
	{
		OFFSET 0.000000 0.000000 0.000000
		CHANNELS 3 Xrotation Yrotation Zrotation
		JOINT RightUpLeg
		{
			OFFSET -11.333700 -6.187798 -0.413800
			CHANNELS 3 Xrotation Yrotation Zrotation
			JOINT RightLeg
			{
				OFFSET -0.430392 -32.302628 3.733000
				CHANNELS 3 Xrotation Yrotation Zrotation
				JOINT RightFoot
				{
					OFFSET 0.430392 -48.264973 -6.423500
					CHANNELS 3 Xrotation Yrotation Zrotation
					JOINT RightToeBase
					{
						OFFSET -4.230900 -16.068199 23.438400
						CHANNELS 3 Xrotation Yrotation Zrotation
						JOINT RightToe_End
						{
							OFFSET -4.510700 0.695400 19.974600
							CHANNELS 3 Xrotation Yrotation Zrotation
							End Site
							{
								OFFSET 0 0 0
							}
						}
					}
				}
			}
		}
	}
	JOINT Spine_virtual
	{
		OFFSET 0.000000 0.000000 0.000000
		CHANNELS 3 Xrotation Yrotation Zrotation
		JOINT Spine
		{
			OFFSET -0.002400 12.777504 0.315300
			CHANNELS 3 Xrotation Yrotation Zrotation
			JOINT Spine1
			{
				OFFSET -0.002067 5.816869 0.032633
				CHANNELS 3 Xrotation Yrotation Zrotation
				JOINT Spine1_split
				{
					OFFSET -0.002067 5.816869 0.032633
					CHANNELS 3 Xrotation Yrotation Zrotation
					JOINT Spine2
					{
						OFFSET -0.002067 5.816869 0.032633
						CHANNELS 3 Xrotation Yrotation Zrotation
						JOINT Neck_virtual
						{
							OFFSET 0.000000 0.000000 0.000000
							CHANNELS 3 Xrotation Yrotation Zrotation
							JOINT Neck
							{
								OFFSET -0.003700 21.199493 -0.826900
								CHANNELS 3 Xrotation Yrotation Zrotation
								JOINT Head
								{
									OFFSET 0.000000 20.442200 4.834800
									CHANNELS 3 Xrotation Yrotation Zrotation
									JOINT HeadTop_End
									{
										OFFSET 0.000000 34.668396 4.968400
										CHANNELS 3 Xrotation Yrotation Zrotation
										End Site
										{
											OFFSET 0 0 0
										}
									}
								}
							}
						}
						JOINT LeftShoulder_virtual
						{
							OFFSET 0.000000 0.000000 0.000000
							CHANNELS 3 Xrotation Yrotation Zrotation
							JOINT LeftShoulder
							{
								OFFSET 3.288150 8.794197 -1.372250
								CHANNELS 3 Xrotation Yrotation Zrotation
								JOINT LeftShoulder_split
								{
									OFFSET 3.288150 8.794197 -1.372250
									CHANNELS 3 Xrotation Yrotation Zrotation
									JOINT LeftArm
									{
										OFFSET 11.953299 -2.279007 -0.146200
										CHANNELS 3 Xrotation Yrotation Zrotation
										JOINT LeftForeArm
										{
											OFFSET 18.448900 0.000000 0.000000
											CHANNELS 3 Xrotation Yrotation Zrotation
											JOINT LeftHand
											{
												OFFSET 29.527798 0.000000 0.000000
												CHANNELS 3 Xrotation Yrotation Zrotation
												End Site
												{
													OFFSET 0 0 0
												}
											}
										}
									}
								}
							}
						}
						JOINT RightShoulder_virtual
						{
							OFFSET 0.000000 0.000000 0.000000
							CHANNELS 3 Xrotation Yrotation Zrotation
							JOINT RightShoulder
							{
								OFFSET -3.249400 8.794197 -1.372250
								CHANNELS 3 Xrotation Yrotation Zrotation
								JOINT RightShoulder_split
								{
									OFFSET -3.249400 8.794197 -1.372250
									CHANNELS 3 Xrotation Yrotation Zrotation
									JOINT RightArm
									{
										OFFSET -11.953299 -2.279007 -0.146200
										CHANNELS 3 Xrotation Yrotation Zrotation
										JOINT RightForeArm
										{
											OFFSET -18.448900 0.000000 0.000000
											CHANNELS 3 Xrotation Yrotation Zrotation
											JOINT RightHand
											{
												OFFSET -29.527802 0.000000 0.000000
												CHANNELS 3 Xrotation Yrotation Zrotation
												End Site
												{
													OFFSET 0 0 0
												}
											}
										}
									}
								}
							}
						}
					}
				}
			}
		}
	}
}
MOTION
Frames: 8
Frame Time: 0.03333333
-1.602608 99.183426 0.759953 0.000000 0.000000 0.000000 5.038607 -12.195567 0.047739 -20.596456 8.673974 14.032137 19.124096 6.008442 1.312545 1.265678 5.218560 -10.865503 0.080422 -2.221578 -5.813607 0.000000 0.000000 0.000000 5.098282 -11.818866 0.282893 -12.310051 -7.592415 -8.369114 12.880350 -5.441676 -2.452887 -8.733106 1.118632 7.584849 -7.143583 1.937557 4.052138 0.000000 0.000000 0.000000 5.705589 -9.568217 0.082470 10.021241 -0.483985 0.262106 1.974123 3.757309 0.005067 0.118171 -1.889054 0.414749 0.000000 0.000000 0.000000 -8.736648 2.377179 1.309553 -8.695734 5.723605 -6.216492 9.671411 -4.492824 13.739479 0.000000 0.000000 0.000000 -9.186860 2.343633 1.020788 -1.076926 5.793134 -4.588379 1.653418 -2.569580 -0.511465 -5.833124 -0.799601 -68.551774 -0.074511 -18.941166 -0.233969 0.000000 0.000000 0.000000 -8.960509 2.037042 0.965547 -1.532905 0.106156 5.622166 -3.367399 -3.187746 -0.576438 7.604735 10.720866 71.142847 -1.335590 23.409906 2.742348 0.000000 0.000000 0.000000 
-0.977013 98.926376 0.702728 0.000000 0.000000 0.000000 5.100693 -12.523714 0.172576 -20.603773 8.692344 13.743064 19.266145 6.059872 1.247257 0.851299 5.255965 -10.801904 0.021657 -2.251409 -5.566342 0.000000 0.000000 0.000000 5.124365 -11.757608 0.390057 -12.753854 -7.967776 -8.645799 13.351899 -5.620173 -2.445168 -9.332707 0.878941 6.947689 -5.640069 1.977556 3.895189 0.000000 0.000000 0.000000 5.621306 -9.902130 0.064472 10.054853 -0.611876 0.384891 2.041720 3.748826 -0.047455 -0.153345 -1.906966 0.304853 0.000000 0.000000 0.000000 -8.808856 2.302315 1.280265 -8.489475 5.242829 -6.145262 9.812169 -5.084317 14.480143 0.000000 0.000000 0.000000 -9.151064 2.306596 0.919185 -1.082467 5.974074 -4.653505 1.717315 -1.823070 -0.587505 -5.975429 -0.445879 -68.637015 -0.023249 -18.690502 -0.147716 0.000000 0.000000 0.000000 -8.918162 1.999441 0.940410 -1.470263 -0.076051 5.696931 -2.659926 -1.815099 -1.015986 8.449633 11.274942 70.692273 -1.191988 24.069035 2.625335 0.000000 0.000000 0.000000 
-0.146430 98.568825 0.859180 0.000000 0.000000 0.000000 5.057284 -12.950391 0.292388 -20.959173 8.961932 13.481119 19.949989 6.110459 1.207892 0.231240 5.153671 -10.798337 -0.074671 -2.265209 -5.290312 0.000000 0.000000 0.000000 5.089837 -11.958242 0.498366 -13.373035 -8.267591 -9.042407 13.838891 -5.527473 -2.514361 -9.570628 0.432814 7.125011 -5.409278 1.941030 3.399477 0.000000 0.000000 0.000000 5.658149 -10.433605 0.132048 10.174017 -0.814316 0.534433 2.128091 3.794406 -0.114449 -0.281658 -1.728398 0.331604 0.000000 0.000000 0.000000 -8.811499 2.297425 1.221830 -8.770394 3.899790 -5.917787 10.600389 -7.439756 15.705567 0.000000 0.000000 0.000000 -9.148908 2.294319 0.810906 -1.168897 6.072136 -4.541739 1.807399 -1.080499 -0.511806 -5.410523 0.059809 -68.709756 -0.031470 -19.174907 -0.139231 0.000000 0.000000 0.000000 -8.880428 2.002536 0.913762 -1.344241 -0.496398 5.844679 -2.134333 -0.732647 -1.622300 10.181243 12.491210 69.964742 -0.849474 25.008429 2.326060 0.000000 0.000000 0.000000 
0.784393 98.189384 1.103676 0.000000 0.000000 0.000000 4.991423 -13.442646 0.404938 -21.618438 9.422015 13.256690 20.948463 6.239400 1.204923 -0.483040 4.975880 -10.780144 -0.196431 -2.260816 -4.995408 0.000000 0.000000 0.000000 5.044297 -12.366387 0.596275 -14.026134 -8.397315 -9.494627 14.107444 -5.095307 -2.608902 -9.157630 0.024597 8.138640 -6.363662 1.826069 2.790810 0.000000 0.000000 0.000000 5.872872 -11.099838 0.236071 10.345411 -1.035633 0.671964 2.235436 3.847218 -0.198418 -0.212684 -1.484353 0.452857 0.000000 0.000000 0.000000 -8.715273 2.334444 1.129081 -9.544334 1.899249 -5.602372 11.832057 -11.161362 17.124556 0.000000 0.000000 0.000000 -9.150319 2.277552 0.696869 -1.322498 6.005744 -4.346233 2.041934 -0.546373 -0.381203 -4.070667 0.609433 -68.748559 -0.049149 -20.470017 -0.208398 0.000000 0.000000 0.000000 -8.850830 2.019415 0.884700 -1.144547 -1.163232 6.066598 -1.745356 -0.287112 -2.112999 12.322999 13.922242 69.174892 -0.414163 26.103917 1.927302 0.000000 0.000000 0.000000 
1.808871 97.880524 1.356052 0.000000 0.000000 0.000000 4.974674 -14.042328 0.491246 -22.452176 9.995934 13.066266 22.072135 6.563658 1.234685 -1.227396 4.891244 -10.627739 -0.318311 -2.241006 -4.701565 0.000000 0.000000 0.000000 5.056722 -12.920794 0.669273 -14.363229 -8.366212 -9.871895 13.790581 -4.514492 -2.720414 -8.419618 -0.292984 9.233555 -6.967286 1.724594 2.416748 0.000000 0.000000 0.000000 6.239658 -11.950061 0.343480 10.524905 -1.212010 0.775291 2.360292 3.832007 -0.295520 0.052204 -0.980426 0.744010 0.000000 0.000000 0.000000 -8.531429 2.351720 1.004412 -10.724533 -0.528078 -5.251503 13.279974 -15.557839 18.340812 0.000000 0.000000 0.000000 -9.116269 2.212030 0.600879 -1.504843 5.744826 -4.196251 2.381223 -0.110034 -0.280315 -1.952235 1.211060 -68.721013 -0.023173 -22.530337 -0.319891 0.000000 0.000000 0.000000 -8.813156 2.007035 0.840518 -0.872387 -2.031588 6.361966 -1.491269 -0.268563 -2.332542 14.264766 15.199572 68.507897 0.009401 27.305660 1.537133 0.000000 0.000000 0.000000 
2.817404 97.679077 1.539391 0.000000 0.000000 0.000000 5.030121 -14.624658 0.525464 -23.333140 10.605870 12.905479 23.120233 7.140711 1.305545 -2.094872 5.049717 -10.247746 -0.393430 -2.206890 -4.433809 0.000000 0.000000 0.000000 5.141013 -13.538747 0.675704 -14.391244 -8.192811 -10.144299 12.815895 -3.957506 -2.825964 -7.789691 -0.495079 9.751505 -6.583046 1.699224 2.480415 0.000000 0.000000 0.000000 6.665883 -12.957221 0.401993 10.649816 -1.288361 0.846480 2.501006 3.685872 -0.401347 0.228176 -0.586171 0.997621 0.000000 0.000000 0.000000 -8.266682 2.278076 0.858754 -12.175316 -3.044509 -4.912227 14.652776 -19.984534 18.936988 0.000000 0.000000 0.000000 -9.018380 2.039189 0.517901 -1.680854 5.344630 -4.194316 2.644561 0.336417 -0.202739 0.703039 1.845924 -68.621934 0.077552 -25.237213 -0.435184 0.000000 0.000000 0.000000 -8.749135 1.889980 0.760821 -0.554283 -2.979984 6.684734 -1.388540 -0.437772 -2.331418 15.449545 16.181569 68.075847 0.353966 28.509908 1.243378 0.000000 0.000000 0.000000 
3.820807 97.575531 1.611759 0.000000 0.000000 0.000000 5.141133 -15.105237 0.479197 -24.152734 11.149454 12.708848 24.015684 7.914658 1.434565 -3.098298 5.501937 -9.704251 -0.465439 -2.161583 -4.203837 0.000000 0.000000 0.000000 5.346698 -14.176957 0.638737 -14.445085 -7.846049 -10.388113 11.652806 -3.315445 -2.915755 -7.172054 -0.386637 9.643440 -5.871081 1.806794 2.853939 0.000000 0.000000 0.000000 7.109400 -13.987949 0.429692 10.711102 -1.216400 0.889831 2.664043 3.352878 -0.508871 0.248393 -0.416001 1.110537 0.000000 0.000000 0.000000 -7.946987 2.042026 0.697779 -13.760542 -5.434510 -4.640637 15.769455 -24.105768 18.692389 0.000000 0.000000 0.000000 -8.826804 1.713305 0.446107 -1.838766 4.945527 -4.369749 2.883172 0.818322 -0.100839 3.665647 2.521539 -68.424391 0.225227 -28.470387 -0.511789 0.000000 0.000000 0.000000 -8.646507 1.614597 0.639552 -0.227934 -3.939817 6.907235 -1.289487 -0.685096 -2.244551 15.606825 17.051057 67.907469 0.613459 29.792008 1.076651 0.000000 0.000000 0.000000 
4.831561 97.537628 1.619587 0.000000 0.000000 0.000000 5.284968 -15.547720 0.339522 -24.944865 11.539879 12.489760 24.862660 8.765786 1.607414 -4.080770 6.199465 -9.161051 -0.659626 -2.115990 -3.971366 0.000000 0.000000 0.000000 5.618646 -14.885226 0.583936 -14.977760 -7.342032 -10.629515 11.017531 -2.510079 -2.939602 -6.137342 0.162116 9.324028 -5.725747 2.007206 3.367087 0.000000 0.000000 0.000000 7.456296 -14.990720 0.457119 10.732315 -0.978753 0.915556 2.863787 2.818148 -0.614573 0.126247 -0.361693 1.085917 0.000000 0.000000 0.000000 -7.623202 1.596452 0.535797 -15.287311 -7.548553 -4.442857 16.448514 -27.453785 17.544519 0.000000 0.000000 0.000000 -8.528180 1.192738 0.377621 -1.953901 4.677039 -4.713675 3.161755 1.304275 0.070438 6.633452 3.269135 -68.176394 0.353604 -31.810045 -0.529336 0.000000 0.000000 0.000000 -8.479151 1.138272 0.485005 0.079306 -4.797443 6.969735 -1.241088 -0.969137 -2.031928 14.822079 18.178735 67.829946 0.821571 31.334166 1.025527 0.000000 0.000000 0.000000 
